<svg xmlns="http://www.w3.org/2000/svg" viewBox="0 0 512 512">
  <defs>
    <linearGradient id="bg" x1="0" y1="0" x2="1" y2="1">
      <stop offset="0" stop-color="#1a1626"/>
      <stop offset="1" stop-color="#0b0a12"/>
    </linearGradient>
    <linearGradient id="gold" x1="0" y1="0" x2="0" y2="1">
      <stop offset="0" stop-color="#f5d67b"/>
      <stop offset="1" stop-color="#c9992e"/>
    </linearGradient>
  </defs>
  <rect width="512" height="512" rx="110" fill="url(#bg)"/>
  <rect x="24" y="24" width="464" height="464" rx="92" fill="none" stroke="#3d3357" stroke-width="6"/>
  <!-- mancuerna -->
  <g stroke="url(#gold)" stroke-width="34" stroke-linecap="round">
    <line x1="150" y1="256" x2="362" y2="256"/>
    <line x1="150" y1="186" x2="150" y2="326"/>
    <line x1="106" y1="206" x2="106" y2="306"/>
    <line x1="362" y1="186" x2="362" y2="326"/>
    <line x1="406" y1="206" x2="406" y2="306"/>
  </g>
  <!-- flecha de subir nivel -->
  <path d="M256 96 L296 152 L268 152 L268 196 L244 196 L244 152 L216 152 Z" fill="#a78bfa"/>
  <!-- barra XP -->
  <rect x="126" y="380" width="260" height="26" rx="13" fill="#241f36"/>
  <rect x="126" y="380" width="180" height="26" rx="13" fill="url(#gold)"/>
</svg>
